<svg width="32" height="32" viewBox="0 0 32 32" fill="none" xmlns="http://www.w3.org/2000/svg">
  <style>
    .bg { fill: #181617; }
    .icon { fill: #FAFAFA; }
    @media (prefers-color-scheme: light) {
      .bg { fill: #FAFAFA; }
      .icon { fill: #181617; }
    }
  </style>
  <rect class="bg" width="32" height="32" rx="6.4"/>
  <g clip-path="url(#clip0_4015_10)">
    <path class="icon" d="M13.5957 14.1268C14.92 14.1268 15.9936 13.0532 15.9936 11.7289C15.9936 10.4045 14.92 9.33093 13.5957 9.33093C12.2714 9.33093 11.1978 10.4045 11.1978 11.7289C11.1978 13.0532 12.2714 14.1268 13.5957 14.1268Z"/>
    <path class="icon" d="M24.114 14.1273C23.2256 14.1273 22.4491 14.7266 22.2279 15.5858C21.4964 18.4236 18.7827 19.9679 15.9914 19.9301C13.2006 19.9679 10.4865 18.4236 9.75493 15.5858C9.53373 14.7266 8.75672 14.1273 7.86886 14.1273C6.63923 14.1273 5.71867 15.2517 5.95724 16.4578C6.92122 21.3293 11.4561 23.7646 15.9909 23.7666C20.5258 23.7651 25.0606 21.3293 26.0246 16.4578C26.2632 15.2517 25.3426 14.1273 24.113 14.1273H24.114Z"/>
  </g>
  <defs>
    <clipPath id="clip0_4015_10">
      <rect width="20.1435" height="14.4352" fill="white" transform="translate(5.91992 9.33093)"/>
    </clipPath>
  </defs>
</svg>
